<svg width="64" height="64" viewBox="0 0 64 64" fill="none" xmlns="http://www.w3.org/2000/svg">
  <defs>
    <linearGradient id="chipBg" x1="0" y1="0" x2="64" y2="64" gradientUnits="userSpaceOnUse">
      <stop offset="0" stop-color="#2f8f83" />
      <stop offset="1" stop-color="#14B8A6" />
    </linearGradient>
    <filter id="glow" x="-4" y="-4" width="72" height="72" filterUnits="userSpaceOnUse">
      <stop offset="0" stop-color="#2f8f83" stop-opacity="0.4" />
      <stop offset="1" stop-color="#2f8f83" stop-opacity="0" />
    </filter>
  </defs>
  
  <!-- Outer shell -->
  <rect x="8" y="12" width="48" height="40" rx="4" fill="url(#chipBg)" />
  <rect x="8" y="12" width="48" height="40" rx="4" stroke="#ffffff" stroke-opacity="0.2" stroke-width="1" />
  
  <!-- Contacts -->
  <rect x="12" y="52" width="4" height="4" rx="1" fill="#FFD700" />
  <rect x="20" y="52" width="4" height="4" rx="1" fill="#FFD700" />
  <rect x="28" y="52" width="4" height="4" rx="1" fill="#FFD700" />
  <rect x="36" y="52" width="4" height="4" rx="1" fill="#FFD700" />
  <rect x="44" y="52" width="4" height="4" rx="1" fill="#FFD700" />
  
  <!-- Internal circuit patterns -->
  <path d="M16 20 H48 M16 28 H32 M16 36 H40" stroke="white" stroke-opacity="0.15" stroke-width="2" stroke-linecap="round" />
  <circle cx="48" cy="36" r="4" fill="white" fill-opacity="0.2" />
  <path d="M46 36 L48 38 L51 34" stroke="white" stroke-opacity="0.6" stroke-width="1.5" stroke-linecap="round" stroke-linejoin="round" />
  
  <!-- Detail notch -->
  <path d="M52 16 L56 20 V24 L52 28" stroke="white" stroke-opacity="0.2" stroke-width="1" />
</svg>
